<svg xmlns="http://www.w3.org/2000/svg" xmlns:xlink="http://www.w3.org/1999/xlink" height="24" width="19.199996948242188">
  <g opacity="1">
    <g opacity="1">
      <g opacity="1">
        <g opacity="1">
          <path fill="rgb(228,163,136)" fill-opacity="1" opacity="1" fill-rule="evenodd" d="M0 9.5999755859375C0 10.925537109375 1.0745162963867188 12 2.4000015258789062 12L2.4000015258789062 21.5999755859375C2.4000015258789062 22.925537109375 3.474517822265625 24 4.8000030517578125 24C6.125480651855469 24 7.1999969482421875 22.925537109375 7.1999969482421875 21.5999755859375L7.1999969482421875 12C8.525482177734375 12 9.599998474121094 10.925537109375 9.599998474121094 9.5999755859375L9.599998474121094 1.199951171875C9.599998474121094 0.5372314453125 9.062744140625 0 8.400001525878906 0C7.7372589111328125 0 7.1999969482421875 0.5372314453125 7.1999969482421875 1.199951171875L7.1999969482421875 6L6 6L6 1.199951171875C6 0.5372314453125 5.462745666503906 0 4.8000030517578125 0C4.137260437011719 0 3.5999984741210938 0.5372314453125 3.5999984741210938 1.199951171875L3.5999984741210938 6L2.4000015258789062 6L2.4000015258789062 1.199951171875C2.4000015258789062 0.5372314453125 1.8627395629882812 0 1.1999969482421875 0C0.537261962890625 0 0 0.5372314453125 0 1.199951171875L0 9.5999755859375ZM19.199996948242188 21.5999755859375L19.199996948242188 0L15.599998474121094 0C13.611778259277344 0 12 1.61181640625 12 3.5999755859375L12 15.5999755859375L14.400001525878906 15.5999755859375L14.400001525878906 21.5999755859375C14.400001525878906 22.925537109375 15.474517822265625 24 16.800003051757812 24C18.12548065185547 24 19.199996948242188 22.925537109375 19.199996948242188 21.5999755859375Z"/>
        </g>
      </g>
    </g>
  </g>
</svg>