<svg xmlns="http://www.w3.org/2000/svg" xmlns:xlink="http://www.w3.org/1999/xlink" height="24.00000010000008" width="24.000000099999852">
  <defs>
    <rect id="rect-1" opacity="1" x="0" y="0" width="24" height="24"/>
  </defs>
  <g transform="translate(5.00003807246685e-8, 4.9999925977317616e-8)" opacity="1">
    <g opacity="1">
      <g opacity="1">
        <g opacity="1">
          <path fill="rgb(228,163,136)" fill-opacity="1" opacity="1" fill-rule="evenodd" d="M24.000000050000075 22.02000004175002L24.000000050000075 22.80000004500002C24.000000050000075 23.462741747558393 23.46274174755845 24.00000005000002 22.800000045000075 24.00000005000002L20.400000035000076 24.00000005000002C9.133391091507685 24.00000005000002 -4.9999924597555956e-8 14.866608908492413 -4.9999925977317616e-8 3.5999999650000207L-4.9999925977317616e-8 1.1999999550000173C-4.999992605848007e-8 0.5372582524416416 0.5372582524416979 -4.99999826989928e-8 1.1999999550000737 -4.999998282073648e-8L5.999999975000074 -4.999998282073648e-8C6.662741677558451 -4.9999982780155254e-8 7.199999980000074 0.5372582524416413 7.199999980000074 1.1999999550000173L7.199999980000074 5.9999999750000175C7.199999980000074 6.671999977800018 6.827999978450075 7.571999981550017 6.359999976500075 8.039999983500017L3.7919999658000743 10.607999994200018C5.615999973400074 14.928000012200018 9.071999987800075 18.384000026600017 13.392000005800076 20.20800003420002L15.936000016400076 17.664000023600018C16.416000018400076 17.184000021600017 17.316000022150074 16.812000020050014 17.976000024900074 16.812000020050014L22.800000045000075 16.812000020050014C23.458050695582752 16.818580854783118 23.988032954942273 17.353916470297786 23.988000049950074 18.012000025050018L23.988000049950074 22.032000041800018L24.000000050000075 22.02000004175002Z"/>
        </g>
      </g>
    </g>
  </g>
</svg>